<svg xmlns="http://www.w3.org/2000/svg" xmlns:xlink="http://www.w3.org/1999/xlink" width="500" zoomAndPan="magnify" viewBox="0 0 375 374.999991" height="500" preserveAspectRatio="xMidYMid meet" version="1.0"><defs><g/></defs><g fill="#000000" fill-opacity="1"><g transform="translate(25.51647, 203.409982)"><g><path d="M 19.546875 -22.484375 C 17.597656 -22.484375 15.914062 -21.757812 14.5 -20.3125 C 13.09375 -18.863281 12.390625 -17.125 12.390625 -15.09375 C 12.390625 -13.019531 13.09375 -11.257812 14.5 -9.8125 C 15.914062 -8.363281 17.597656 -7.640625 19.546875 -7.640625 C 20.492188 -7.640625 21.382812 -7.753906 22.21875 -7.984375 C 23.0625 -8.222656 23.679688 -8.457031 24.078125 -8.6875 L 24.609375 -9.046875 L 28.125 -1.8125 C 27.851562 -1.625 27.472656 -1.378906 26.984375 -1.078125 C 26.492188 -0.785156 25.375 -0.390625 23.625 0.109375 C 21.882812 0.617188 20.019531 0.875 18.03125 0.875 C 13.601562 0.875 9.710938 -0.675781 6.359375 -3.78125 C 3.015625 -6.894531 1.34375 -10.625 1.34375 -14.96875 C 1.34375 -19.351562 3.015625 -23.117188 6.359375 -26.265625 C 9.710938 -29.421875 13.601562 -31 18.03125 -31 C 20.019531 -31 21.859375 -30.765625 23.546875 -30.296875 C 25.234375 -29.828125 26.425781 -29.359375 27.125 -28.890625 L 28.125 -28.1875 L 24.609375 -21.078125 C 23.316406 -22.015625 21.628906 -22.484375 19.546875 -22.484375 Z M 19.546875 -22.484375 "/></g></g></g><g fill="#000000" fill-opacity="1"><g transform="translate(48.822116, 203.409982)"><g><path d="M 5.578125 -3.734375 C 2.753906 -6.804688 1.34375 -10.570312 1.34375 -15.03125 C 1.34375 -19.488281 2.753906 -23.265625 5.578125 -26.359375 C 8.398438 -29.453125 11.984375 -31 16.328125 -31 C 20.316406 -31 23.601562 -29.75 26.1875 -27.25 L 26.1875 -30.125 L 36.578125 -30.125 L 36.578125 0 L 26.3125 0 L 26.3125 -3.40625 L 26.1875 -3.40625 C 23.601562 -0.550781 20.316406 0.875 16.328125 0.875 C 11.984375 0.875 8.398438 -0.660156 5.578125 -3.734375 Z M 14.40625 -20.140625 C 13.0625 -18.804688 12.390625 -17.101562 12.390625 -15.03125 C 12.390625 -12.957031 13.035156 -11.265625 14.328125 -9.953125 C 15.617188 -8.640625 17.320312 -7.984375 19.4375 -7.984375 C 21.46875 -7.984375 23.140625 -8.648438 24.453125 -9.984375 C 25.765625 -11.316406 26.421875 -13 26.421875 -15.03125 C 26.421875 -17.101562 25.742188 -18.804688 24.390625 -20.140625 C 23.046875 -21.472656 21.394531 -22.140625 19.4375 -22.140625 C 17.4375 -22.140625 15.757812 -21.472656 14.40625 -20.140625 Z M 14.40625 -20.140625 "/></g></g></g><g fill="#000000" fill-opacity="1"><g transform="translate(83.399785, 203.409982)"><g><path d="M 3.515625 0 L 3.515625 -30.125 L 13.921875 -30.125 L 13.921875 -26.953125 L 14.03125 -26.953125 C 16.726562 -29.648438 19.609375 -31 22.671875 -31 C 24.148438 -31 25.625 -30.800781 27.09375 -30.40625 C 28.5625 -30.019531 29.972656 -29.414062 31.328125 -28.59375 C 32.679688 -27.769531 33.773438 -26.601562 34.609375 -25.09375 C 35.453125 -23.59375 35.875 -21.84375 35.875 -19.84375 L 35.875 0 L 25.484375 0 L 25.484375 -17.03125 C 25.484375 -18.59375 24.984375 -19.960938 23.984375 -21.140625 C 22.984375 -22.316406 21.679688 -22.90625 20.078125 -22.90625 C 18.515625 -22.90625 17.097656 -22.296875 15.828125 -21.078125 C 14.554688 -19.867188 13.921875 -18.519531 13.921875 -17.03125 L 13.921875 0 Z M 3.515625 0 "/></g></g></g><g fill="#000000" fill-opacity="1"><g transform="translate(116.685867, 203.409982)"><g><path d="M 26.359375 -30.125 L 38.34375 -30.125 L 14.671875 15.265625 L 2.703125 15.265625 L 13.09375 -4.703125 L -1.171875 -30.125 L 10.796875 -30.125 L 19.203125 -14.671875 Z M 26.359375 -30.125 "/></g></g></g><g fill="#000000" fill-opacity="1"><g transform="translate(148.328112, 203.409982)"><g><path d="M 5.578125 -3.734375 C 2.753906 -6.804688 1.34375 -10.570312 1.34375 -15.03125 C 1.34375 -19.488281 2.753906 -23.265625 5.578125 -26.359375 C 8.398438 -29.453125 11.984375 -31 16.328125 -31 C 20.316406 -31 23.601562 -29.75 26.1875 -27.25 L 26.1875 -30.125 L 36.578125 -30.125 L 36.578125 0 L 26.3125 0 L 26.3125 -3.40625 L 26.1875 -3.40625 C 23.601562 -0.550781 20.316406 0.875 16.328125 0.875 C 11.984375 0.875 8.398438 -0.660156 5.578125 -3.734375 Z M 14.40625 -20.140625 C 13.0625 -18.804688 12.390625 -17.101562 12.390625 -15.03125 C 12.390625 -12.957031 13.035156 -11.265625 14.328125 -9.953125 C 15.617188 -8.640625 17.320312 -7.984375 19.4375 -7.984375 C 21.46875 -7.984375 23.140625 -8.648438 24.453125 -9.984375 C 25.765625 -11.316406 26.421875 -13 26.421875 -15.03125 C 26.421875 -17.101562 25.742188 -18.804688 24.390625 -20.140625 C 23.046875 -21.472656 21.394531 -22.140625 19.4375 -22.140625 C 17.4375 -22.140625 15.757812 -21.472656 14.40625 -20.140625 Z M 14.40625 -20.140625 "/></g></g></g><g fill="#000000" fill-opacity="1"><g transform="translate(182.905788, 203.409982)"><g><path d="M 11.15625 -30.125 L 18.5 -13.734375 L 25.84375 -30.125 L 38.171875 -30.125 L 22.015625 0 L 14.96875 0 L -1.171875 -30.125 Z M 11.15625 -30.125 "/></g></g></g><g fill="#000000" fill-opacity="1"><g transform="translate(214.371909, 203.409982)"><g><path d="M 13.328125 -30.125 L 13.328125 -15.796875 C 13.328125 -12.816406 13.773438 -10.703125 14.671875 -9.453125 C 15.578125 -8.203125 17.101562 -7.578125 19.25 -7.578125 C 21.40625 -7.578125 22.929688 -8.203125 23.828125 -9.453125 C 24.734375 -10.703125 25.1875 -12.816406 25.1875 -15.796875 L 25.1875 -30.125 L 35.578125 -30.125 L 35.578125 -13.265625 C 35.578125 -8.253906 34.273438 -4.644531 31.671875 -2.4375 C 29.078125 -0.226562 24.941406 0.875 19.265625 0.875 C 13.585938 0.875 9.445312 -0.226562 6.84375 -2.4375 C 4.238281 -4.644531 2.9375 -8.253906 2.9375 -13.265625 L 2.9375 -30.125 Z M 13.328125 -30.125 "/></g></g></g><g fill="#000000" fill-opacity="1"><g transform="translate(247.364446, 203.409982)"><g><path d="M 32.640625 -30.125 L 17.734375 -7.921875 L 31.46875 -7.921875 L 31.46875 0 L 0.296875 0 L 15.203125 -22.203125 L 2.765625 -22.203125 L 2.765625 -30.125 Z M 32.640625 -30.125 "/></g></g></g><g fill="#000000" fill-opacity="1"><g transform="translate(274.779688, 203.409982)"><g><path d="M 5.578125 -3.734375 C 2.753906 -6.804688 1.34375 -10.570312 1.34375 -15.03125 C 1.34375 -19.488281 2.753906 -23.265625 5.578125 -26.359375 C 8.398438 -29.453125 11.984375 -31 16.328125 -31 C 20.316406 -31 23.601562 -29.75 26.1875 -27.25 L 26.1875 -50.5 L 36.578125 -50.5 L 36.578125 0 L 26.3125 0 L 26.3125 -3.40625 L 26.1875 -3.40625 C 23.601562 -0.550781 20.316406 0.875 16.328125 0.875 C 11.984375 0.875 8.398438 -0.660156 5.578125 -3.734375 Z M 14.40625 -20.140625 C 13.0625 -18.804688 12.390625 -17.101562 12.390625 -15.03125 C 12.390625 -12.957031 13.035156 -11.265625 14.328125 -9.953125 C 15.617188 -8.640625 17.320312 -7.984375 19.4375 -7.984375 C 21.46875 -7.984375 23.140625 -8.648438 24.453125 -9.984375 C 25.765625 -11.316406 26.421875 -13 26.421875 -15.03125 C 26.421875 -17.101562 25.742188 -18.804688 24.390625 -20.140625 C 23.046875 -21.472656 21.394531 -22.140625 19.4375 -22.140625 C 17.4375 -22.140625 15.757812 -21.472656 14.40625 -20.140625 Z M 14.40625 -20.140625 "/></g></g></g><g fill="#000000" fill-opacity="1"><g transform="translate(309.35735, 203.409982)"><g><path d="M 34.515625 -26.359375 C 37.335938 -23.265625 38.75 -19.488281 38.75 -15.03125 C 38.75 -10.570312 37.335938 -6.804688 34.515625 -3.734375 C 31.703125 -0.660156 28.125 0.875 23.78125 0.875 C 19.789062 0.875 16.503906 -0.550781 13.921875 -3.40625 L 13.796875 -3.40625 L 13.796875 0 L 3.515625 0 L 3.515625 -50.5 L 13.921875 -50.5 L 13.921875 -27.25 C 16.503906 -29.75 19.789062 -31 23.78125 -31 C 28.125 -31 31.703125 -29.453125 34.515625 -26.359375 Z M 25.78125 -9.953125 C 27.070312 -11.265625 27.71875 -12.957031 27.71875 -15.03125 C 27.71875 -17.101562 27.039062 -18.804688 25.6875 -20.140625 C 24.332031 -21.472656 22.660156 -22.140625 20.671875 -22.140625 C 18.710938 -22.140625 17.054688 -21.472656 15.703125 -20.140625 C 14.359375 -18.804688 13.6875 -17.101562 13.6875 -15.03125 C 13.6875 -13 14.335938 -11.316406 15.640625 -9.984375 C 16.953125 -8.648438 18.628906 -7.984375 20.671875 -7.984375 C 22.785156 -7.984375 24.488281 -8.640625 25.78125 -9.953125 Z M 25.78125 -9.953125 "/></g></g></g></svg>